<?xml version="1.0" encoding="UTF-8"?>
<svg xmlns="http://www.w3.org/2000/svg" width="1200" height="630" viewBox="0 0 1200 630" role="img" aria-labelledby="title desc">
  <title id="title">World Immigrant — source-cited immigration pathways</title>
  <desc id="desc">World Immigrant identity artwork with a globe emoji and handwritten wordmark.</desc>
  <rect width="1200" height="630" fill="#0e0f14"/>
  <circle cx="1000" cy="72" r="390" fill="#151823" opacity="0.9"/>
  <circle cx="1040" cy="600" r="440" fill="none" stroke="#8fb8ff" stroke-opacity="0.12" stroke-width="1"/>
  <circle cx="1040" cy="600" r="330" fill="none" stroke="#8fb8ff" stroke-opacity="0.09" stroke-width="1"/>
  <text x="220" y="234" text-anchor="middle" dominant-baseline="middle"
    font-family="Apple Color Emoji, Segoe UI Emoji, Noto Color Emoji, sans-serif" font-size="160">🌍</text>
  <g fill="#f7f7fb" transform="translate(118 290) scale(1.1)">
    <path d="M233.759033203125 -87Q223.41900634765625 -87 207.92904663085938 -83.82998657226562Q192.4390869140625 -80.65997314453125 176.78915405273438 -72.15997314453125Q161.13922119140625 -63.65997314453125 150.81927490234375 -46.510040283203125Q140.49932861328125 -29.360107421875 140.49932861328125 -1.06024169921875Q140.49932861328125 27.34002685546875 152.8795166015625 73.6204833984375Q165.25970458984375 119.90093994140625 188.57965087890625 195.18072509765625Q206.2396240234375 252.4805908203125 223.22958374023438 310.1506042480469Q240.21954345703125 367.82061767578125 251.3795166015625 428.46051025390625Q262.53948974609375 489.10040283203125 262.53948974609375 553.3199462890625Q262.53948974609375 592.9598388671875 258.3895568847656 622.3199462890625Q254.2396240234375 651.6800537109375 241.07965087890625 667.8801879882812Q227.919677734375 684.080322265625 201.8795166015625 684.080322265625Q176.5194091796875 684.080322265625 158.00936889648438 669.8902282714844Q139.49932861328125 655.7001342773438 127.32931518554688 632.6700134277344Q115.1593017578125 609.639892578125 109.32931518554688 582.6198120117188Q103.49932861328125 555.5997314453125 103.49932861328125 529.9397583007812Q103.49932861328125 489.6800537109375 116.45916748046875 463.4002685546875Q70.85943603515625 463.4002685546875 50.89959716796875 485.8902282714844Q30.93975830078125 508.38018798828125 30.93975830078125 540.6800537109375Q30.93975830078125 571.0200805664062 45.769744873046875 602.6800537109375Q60.5997314453125 634.3400268554688 86.75970458984375 660.8400268554688Q112.919677734375 687.3400268554688 147.2396240234375 703.6700134277344Q181.5595703125 720 220.53948974609375 720Q286.49932861328125 720 320.2991943359375 670.5100402832031Q354.09906005859375 621.0200805664062 354.09906005859375 532.7603759765625Q354.09906005859375 462.4002685546875 334.91900634765625 385.52008056640625Q315.73895263671875 308.639892578125 288.759033203125 224.38018798828125Q276.7188720703125 186.25970458984375 262.87884521484375 145.3795166015625Q249.038818359375 104.49932861328125 239.04885864257812 64.84939575195312Q229.05889892578125 25.199462890625 229.05889892578125 -11.06024169921875Q229.05889892578125 -30.06024169921875 234.06893920898438 -38.410308837890625Q239.0789794921875 -46.7603759765625 253.77911376953125 -46.7603759765625Q280.09906005859375 -46.7603759765625 310.59906005859375 -23.590362548828125Q341.09906005859375 -0.42034912109375 372.2690734863281 38.919677734375Q403.4390869140625 78.25970458984375 432.27911376953125 126.42971801757812Q461.119140625 174.5997314453125 485.2891540527344 225.26974487304688Q509.45916748046875 275.93975830078125 525.6291809082031 321.6097717285156Q541.7991943359375 367.27978515625 546.4591674804688 400.93975830078125Q582.759033203125 400.93975830078125 601.2088317871094 381.29986572265625Q619.6586303710938 361.65997314453125 619.6586303710938 344.02008056640625Q619.6586303710938 331.97991943359375 609.6285095214844 304.919677734375Q599.598388671875 277.85943603515625 580.2784423828125 232.89959716796875Q564.6184692382812 195.57965087890625 548.1285095214844 153.58969116210938Q531.6385498046875 111.5997314453125 520.4785766601562 70.26974487304688Q509.318603515625 28.93975830078125 509.318603515625 -7.4002685546875Q509.318603515625 -27.06024169921875 514.6485900878906 -36.910308837890625Q519.9785766601562 -46.7603759765625 535.9986572265625 -46.7603759765625Q563.9986572265625 -46.7603759765625 600.6686706542969 -18.92034912109375Q637.3386840820312 8.919677734375 676.5086975097656 57.0997314453125Q715.6787109375 105.27978515625 752.8487243652344 165.62985229492188Q790.0187377929688 225.97991943359375 820.0187377929688 291.1700134277344Q850.0187377929688 356.360107421875 867.6887512207031 419.38018798828125Q885.3587646484375 482.4002685546875 885.3587646484375 534.7603759765625Q885.3587646484375 588.0602416992188 867.3888854980469 611.2302551269531Q849.4190063476562 634.4002685546875 821.7791137695312 643.3801879882812Q838.4190063476562 670.6800537109375 857.2188720703125 683.3299865722656Q876.0187377929688 695.9799194335938 890.9986572265625 695.9799194335938Q913.318603515625 695.9799194335938 936.2884826660156 667.3299865722656Q959.2583618164062 638.6800537109375 959.2583618164062 577.72021484375Q959.2583618164062 524.0401611328125 938.7583618164062 454.70013427734375Q918.2583618164062 385.360107421875 882.9283752441406 310.52008056640625Q847.598388671875 235.6800537109375 802.2684020996094 165.01004028320312Q756.9384155273438 94.34002685546875 706.2884826660156 37.34002685546875Q655.6385498046875 -19.65997314453125 604.9986572265625 -53.329986572265625Q554.3587646484375 -87 509.39892578125 -87Q485.77911376953125 -87 465.4491271972656 -77.35006713867188Q445.119140625 -67.70013427734375 432.9390869140625 -49.22021484375Q420.759033203125 -30.74029541015625 420.759033203125 -4.74029541015625Q420.759033203125 8.27978515625 424.6091003417969 24.850067138671875Q428.45916748046875 41.42034912109375 434.1593017578125 59.520751953125Q384.479248046875 -5.8795166015625 333.619140625 -46.43975830078125Q282.759033203125 -87 233.759033203125 -87Z" transform="translate(30.000 112.000) scale(0.12334537 -0.12334537)"/>
    <path d="M67.02008056640625 -32Q22.70013427734375 -32 5.690093994140625 -3.52008056640625Q-11.3199462890625 24.9598388671875 -11.3199462890625 60.97991943359375Q-11.3199462890625 92.639892578125 -1.3199462890625 125.96987915039062Q8.6800537109375 159.29986572265625 25.84002685546875 188.29986572265625Q43 217.29986572265625 64.15997314453125 234.96987915039062Q85.3199462890625 252.639892578125 106.97991943359375 252.639892578125Q113.29986572265625 252.639892578125 121.43975830078125 250.47991943359375Q129.57965087890625 248.3199462890625 133.919677734375 244.34002685546875Q122.93975830078125 231.72021484375 110.43975830078125 209.89022827148438Q97.93975830078125 188.06024169921875 87.26974487304688 162.5401611328125Q76.5997314453125 137.02008056640625 70.08969116210938 111.34002685546875Q63.57965087890625 85.65997314453125 63.57965087890625 65.34002685546875Q63.57965087890625 41.93975830078125 71.92971801757812 28.769744873046875Q80.27978515625 15.5997314453125 98.25970458984375 15.5997314453125Q117.93975830078125 15.5997314453125 145.28982543945312 37.43975830078125Q172.639892578125 59.27978515625 198 89.65997314453125Q167.360107421875 116.61981201171875 152.85006713867188 152.139892578125Q138.34002685546875 187.65997314453125 138.34002685546875 233.25970458984375Q138.34002685546875 258.34002685546875 149.1800537109375 286.02008056640625Q160.02008056640625 313.70013427734375 183.01004028320312 332.8500671386719Q206 352 242.93975830078125 352Q285.25970458984375 352 301.5696105957031 328.6800537109375Q317.8795166015625 305.360107421875 317.8795166015625 272.360107421875Q317.8795166015625 234.6800537109375 298.5495300292969 188.17001342773438Q279.21954345703125 141.65997314453125 251.53948974609375 99.639892578125Q265.57965087890625 92.27978515625 282.93975830078125 92.27978515625Q298.27978515625 92.27978515625 318.93975830078125 99.10977172851562Q339.5997314453125 105.93975830078125 359.4297180175781 122.26974487304688Q379.25970458984375 138.5997314453125 391.25970458984375 166.25970458984375L407.21954345703125 154.27978515625Q385.89959716796875 104.639892578125 349.39959716796875 82.5Q312.89959716796875 60.360107421875 278.57965087890625 60.360107421875Q265.57965087890625 60.360107421875 252.919677734375 62.860107421875Q240.25970458984375 65.360107421875 229.25970458984375 69.70013427734375Q195.25970458984375 28 152.44979858398438 -2.0Q109.639892578125 -32 67.02008056640625 -32ZM221.27978515625 119.61981201171875Q245.61981201171875 155.29986572265625 262.4497985839844 195.46987915039062Q279.27978515625 235.639892578125 279.27978515625 270.3199462890625Q279.27978515625 295.360107421875 271.7697448730469 306.88018798828125Q264.25970458984375 318.4002685546875 250.5997314453125 318.4002685546875Q231.25970458984375 318.4002685546875 210.919677734375 290.72021484375Q190.57965087890625 263.0401611328125 190.57965087890625 221.02008056640625Q190.57965087890625 197.29986572265625 198.419677734375 167.46987915039062Q206.25970458984375 137.639892578125 221.27978515625 119.61981201171875Z" transform="translate(145.575 112.000) scale(0.12334537 -0.12334537)"/>
    <path d="M180.919677734375 -26Q144.93975830078125 -26 123.12985229492188 -7.010040283203125Q101.3199462890625 11.97991943359375 101.3199462890625 43.61981201171875Q101.3199462890625 72.29986572265625 115.3199462890625 104.639892578125Q129.3199462890625 136.97991943359375 143.47991943359375 168.48995971679688Q157.639892578125 200 157.639892578125 224.6800537109375Q157.639892578125 250.74029541015625 141.44979858398438 266.24029541015625Q125.25970458984375 281.74029541015625 105.5997314453125 292.7603759765625Q83.25970458984375 236.4002685546875 56.609771728515625 184.39022827148438Q29.9598388671875 132.38018798828125 13.29986572265625 104.06024169921875L0.34002685546875 128.97991943359375Q14.34002685546875 154.97991943359375 37.170013427734375 203.65997314453125Q60 252.34002685546875 81.34002685546875 313.0401611328125Q71.34002685546875 323.0401611328125 71.34002685546875 339.02008056640625Q71.34002685546875 366.38018798828125 87.6800537109375 388.02008056640625Q104.02008056640625 409.65997314453125 116.639892578125 409.65997314453125Q128.29986572265625 409.65997314453125 132.43975830078125 397.52008056640625Q136.57965087890625 385.38018798828125 136.57965087890625 380.38018798828125Q136.57965087890625 375.38018798828125 131.7396240234375 361.8701477050781Q126.89959716796875 348.360107421875 125.57965087890625 343.38018798828125Q126.2396240234375 331.360107421875 142.39959716796875 320.52008056640625Q158.5595703125 309.6800537109375 179.21954345703125 295.5100402832031Q199.8795166015625 281.34002685546875 215.70950317382812 260.5100402832031Q231.53948974609375 239.6800537109375 231.53948974609375 207.6800537109375Q231.53948974609375 178.34002685546875 218.70950317382812 148.0Q205.8795166015625 117.65997314453125 193.04953002929688 90.97991943359375Q180.21954345703125 64.29986572265625 180.21954345703125 44.61981201171875Q180.21954345703125 29.25970458984375 188.22958374023438 24.249664306640625Q196.2396240234375 19.2396240234375 206.919677734375 19.2396240234375Q230.919677734375 19.2396240234375 256.7496643066406 33.909637451171875Q282.57965087890625 48.57965087890625 307.2396240234375 71.57965087890625Q331.89959716796875 94.57965087890625 350.89959716796875 120.07965087890625Q369.89959716796875 145.57965087890625 379.5595703125 166.919677734375L399.81927490234375 151.639892578125Q380.81927490234375 108.97991943359375 345.83935546875 67.8199462890625Q310.85943603515625 26.65997314453125 268.0495300292969 0.329986572265625Q225.2396240234375 -26 180.919677734375 -26Z" transform="translate(191.212 112.000) scale(0.12334537 -0.12334537)"/>
    <path d="M84.97991943359375 -30Q39.34002685546875 -30 20.84002685546875 0.8199462890625Q2.34002685546875 31.639892578125 2.34002685546875 74.97991943359375Q2.34002685546875 123.639892578125 20.34002685546875 189.639892578125Q38.34002685546875 255.639892578125 67.84002685546875 328.3099060058594Q97.34002685546875 400.97991943359375 132.67001342773438 470.47991943359375Q168 539.9799194335938 203.65997314453125 596.3199462890625Q239.3199462890625 652.6599731445312 269.47991943359375 686.3299865722656Q299.639892578125 720 317.9598388671875 720Q330.27978515625 720 338.5997314453125 706.8400268554688Q346.919677734375 693.6800537109375 351.9096374511719 675.5200805664062Q356.89959716796875 657.360107421875 356.89959716796875 642.0401611328125Q356.89959716796875 615.0401611328125 343.39959716796875 571.5401611328125Q329.89959716796875 528.0401611328125 305.39959716796875 475.5301208496094Q280.89959716796875 423.02008056640625 247.39959716796875 368.52008056640625Q213.89959716796875 314.02008056640625 173.7396240234375 264.6800537109375Q133.57965087890625 215.34002685546875 88.25970458984375 179.34002685546875Q83.57965087890625 153.65997314453125 80.07965087890625 128.8199462890625Q76.57965087890625 103.97991943359375 76.57965087890625 82.9598388671875Q76.57965087890625 45.93975830078125 88.2396240234375 28.589691162109375Q99.89959716796875 11.2396240234375 119.919677734375 11.2396240234375Q145.5997314453125 11.2396240234375 172.0997314453125 34.909637451171875Q198.5997314453125 58.57965087890625 222.75970458984375 95.07965087890625Q246.919677734375 131.57965087890625 264.57965087890625 170.57965087890625L285.5194091796875 159.27978515625Q243.53948974609375 71.639892578125 192.57965087890625 20.8199462890625Q141.61981201171875 -30 84.97991943359375 -30ZM103.199462890625 231.81927490234375Q137.53948974609375 268.13922119140625 168.88955688476562 312.31927490234375Q200.2396240234375 356.49932861328125 226.75970458984375 402.85943603515625Q253.27978515625 449.21954345703125 273.29986572265625 492.57965087890625Q293.3199462890625 535.9397583007812 304.3299865722656 570.4598388671875Q315.34002685546875 604.9799194335938 316 624.9799194335938Q316 629.0401611328125 315.1499328613281 630.3902282714844Q314.29986572265625 631.7402954101562 313.61981201171875 632.4002685546875Q305.61981201171875 632.4002685546875 287.43975830078125 608.8801879882812Q269.25970458984375 585.360107421875 244.57965087890625 545.0Q219.89959716796875 504.639892578125 193.88955688476562 452.93975830078125Q167.8795166015625 401.2396240234375 144.03948974609375 344.2095031738281Q120.199462890625 287.17938232421875 103.199462890625 231.81927490234375Z" transform="translate(235.370 112.000) scale(0.12334537 -0.12334537)"/>
    <path d="M65.5997314453125 -30Q47.27978515625 -30 28.4598388671875 -20.84002685546875Q9.639892578125 -11.6800537109375 -3.1800537109375 7.97991943359375Q-16 27.639892578125 -16 57.9598388671875Q-16 90.9598388671875 0.0 131.9598388671875Q16 172.9598388671875 43.329986572265625 213.78982543945312Q70.65997314453125 254.61981201171875 106.64993286132812 288.7898254394531Q142.639892578125 322.9598388671875 182.61981201171875 343.7898254394531Q222.5997314453125 364.61981201171875 262.89959716796875 364.61981201171875Q285.21954345703125 364.61981201171875 297.7095031738281 357.11981201171875Q310.199462890625 349.61981201171875 310.199462890625 332.9598388671875Q310.199462890625 328.29986572265625 308.7095031738281 322.9899597167969Q307.21954345703125 317.6800537109375 301.5997314453125 313.02008056640625Q297.25970458984375 319.70013427734375 287.4297180175781 322.5401611328125Q277.5997314453125 325.38018798828125 265.57965087890625 325.38018798828125Q232.919677734375 325.38018798828125 202.74966430664062 306.5401611328125Q172.57965087890625 287.70013427734375 147.40963745117188 257.8500671386719Q122.2396240234375 228 103.56961059570312 193.3199462890625Q84.89959716796875 158.639892578125 74.72958374023438 126.4598388671875Q64.5595703125 94.27978515625 64.5595703125 71.27978515625Q64.5595703125 51.25970458984375 73.2396240234375 39.249664306640625Q81.919677734375 27.2396240234375 97.919677734375 27.2396240234375Q124.919677734375 27.2396240234375 162.75970458984375 59.589691162109375Q200.5997314453125 91.93975830078125 240.26974487304688 152.28982543945312Q279.93975830078125 212.639892578125 311.93975830078125 295.639892578125Q333.93975830078125 352.97991943359375 357.7697448730469 412.6499328613281Q381.5997314453125 472.3199462890625 405.5997314453125 527.4899597167969Q429.5997314453125 582.6599731445312 452.75970458984375 625.8299865722656Q475.919677734375 669 497.07965087890625 694.5Q518.2396240234375 720 535.5595703125 720Q545.5394897460938 720 553.1894226074219 712.1800537109375Q560.83935546875 704.360107421875 560.83935546875 692.3801879882812Q560.83935546875 675.72021484375 544.33935546875 637.8801879882812Q527.83935546875 600.0401611328125 501.99932861328125 547.5301208496094Q476.1593017578125 495.02008056640625 446.8293151855469 433.6700134277344Q417.49932861328125 372.3199462890625 391.6593017578125 308.3099060058594Q365.81927490234375 244.29986572265625 349.31927490234375 183.139892578125Q332.81927490234375 121.97991943359375 332.81927490234375 69.34002685546875Q332.81927490234375 43.97991943359375 336.8092346191406 33.609771728515625Q340.7991943359375 23.2396240234375 353.83935546875 23.2396240234375Q375.49932861328125 23.2396240234375 402.83935546875 40.57965087890625Q430.17938232421875 57.919677734375 458.17938232421875 91.24966430664062Q486.17938232421875 124.57965087890625 508.49932861328125 171.2396240234375L525.119140625 157.61981201171875Q504.13922119140625 103.97991943359375 470.479248046875 62.489959716796875Q436.81927490234375 21 398.3293151855469 -2.5Q359.83935546875 -26 323.199462890625 -26Q283.5595703125 -26 268.0696105957031 -0.510040283203125Q252.57965087890625 24.97991943359375 252.57965087890625 56.919677734375Q252.57965087890625 73.25970458984375 255.92971801757812 93.67001342773438Q259.27978515625 114.080322265625 264.3199462890625 136.2008056640625Q232.97991943359375 88.4805908203125 197.96987915039062 50.60040283203125Q162.9598388671875 12.72021484375 129.44979858398438 -8.639892578125Q95.93975830078125 -30 65.5997314453125 -30Z" transform="translate(265.220 112.000) scale(0.12334537 -0.12334537)"/>
    <path d="M-24.800537109375 -88Q-20.800537109375 -47.0401611328125 2.689422607421875 -28.56024169921875Q26.17938232421875 -10.080322265625 63.49932861328125 -4.42034912109375Q100.81927490234375 1.2396240234375 144.13922119140625 1.2396240234375Q162.13922119140625 39.57965087890625 179.14926147460938 94.0997314453125Q196.1593017578125 148.61981201171875 211.99932861328125 210.97991943359375Q227.83935546875 273.34002685546875 242.84939575195312 338.20013427734375Q257.85943603515625 403.06024169921875 271.199462890625 463.4103088378906Q284.53948974609375 523.7603759765625 296.7095031738281 572.9303894042969Q308.8795166015625 622.1004028320312 319.53948974609375 653.080322265625Q268.199462890625 652.080322265625 229.71954345703125 649.4203491210938Q191.2396240234375 646.7603759765625 157.42971801757812 642.1004028320312Q123.61981201171875 637.4404296875 86.61981201171875 630.4404296875Q96.25970458984375 676.360107421875 146.89959716796875 697.5100402832031Q197.53948974609375 718.6599731445312 302.49932861328125 718.6599731445312Q354.479248046875 718.6599731445312 409.6091003417969 714.6599731445312Q464.73895263671875 710.6599731445312 511.038818359375 705.8299865722656Q557.3386840820312 701 582.9785766601562 697Q552.3788452148438 667.72021484375 523.5689392089844 660.9002685546875Q494.759033203125 654.080322265625 473.4390869140625 654.080322265625Q441.119140625 654.080322265625 414.9390869140625 654.080322265625Q388.759033203125 654.080322265625 365.09906005859375 653.080322265625Q359.119140625 623.5006713867188 350.7891540527344 576.0307922363281Q342.45916748046875 528.5609130859375 331.7891540527344 472.0508728027344Q321.119140625 415.54083251953125 310.4390869140625 357.6706848144531Q299.759033203125 299.800537109375 289.2489929199219 248.92034912109375Q278.73895263671875 198.0401611328125 270.05889892578125 163.3199462890625Q256.038818359375 107.2396240234375 237.3587646484375 63.89959716796875Q218.6787109375 20.5595703125 193.97857666015625 -0.42034912109375Q246.6385498046875 -4.080322265625 302.33868408203125 -10.590362548828125Q358.038818359375 -17.10040283203125 416.9183349609375 -18.7603759765625Q380.65863037109375 -53.0401611328125 346.1887512207031 -61.690093994140625Q311.7188720703125 -70.34002685546875 289.39892578125 -70.34002685546875Q231.57965087890625 -70.34002685546875 189.11981201171875 -70.84002685546875Q146.65997314453125 -71.34002685546875 112.12985229492188 -72.67001342773438Q77.5997314453125 -74 45.0595703125 -77.82998657226562Q12.5194091796875 -81.65997314453125 -24.800537109375 -88Z" transform="translate(357.112 112.000) scale(0.12334537 -0.12334537)"/>
    <path d="M516.5394897460938 -31Q478.89959716796875 -31 460.919677734375 -8.510040283203125Q442.93975830078125 13.97991943359375 442.93975830078125 45.29986572265625Q442.93975830078125 68.97991943359375 450.1097717285156 92.65997314453125Q457.27978515625 116.34002685546875 464.4497985839844 139.35006713867188Q471.61981201171875 162.360107421875 471.61981201171875 180.70013427734375Q471.61981201171875 198.72021484375 464.2697448730469 205.73025512695312Q456.919677734375 212.74029541015625 446.57965087890625 212.74029541015625Q422.89959716796875 212.74029541015625 392.7396240234375 176.38018798828125Q362.57965087890625 140.02008056640625 316.89959716796875 71.65997314453125Q300.89959716796875 47.65997314453125 287.919677734375 21.84002685546875Q274.93975830078125 -3.97991943359375 264.27978515625 -22.65997314453125Q255.61981201171875 -22.65997314453125 241.96987915039062 -20.0Q228.3199462890625 -17.34002685546875 217.82998657226562 -12.1800537109375Q207.34002685546875 -7.02008056640625 207.34002685546875 1.29986572265625Q207.34002685546875 9.61981201171875 217.17001342773438 35.789825439453125Q227 61.9598388671875 239.82998657226562 96.79986572265625Q252.65997314453125 131.639892578125 262.4899597167969 166.15997314453125Q272.3199462890625 200.6800537109375 272.3199462890625 224.70013427734375Q272.3199462890625 239.72021484375 267.1499328613281 248.57028198242188Q261.97991943359375 257.42034912109375 249.9598388671875 257.42034912109375Q228.61981201171875 257.42034912109375 198.60977172851562 231.91030883789062Q168.5997314453125 206.4002685546875 135.92971801757812 165.05020141601562Q103.25970458984375 123.70013427734375 74.419677734375 73.52008056640625Q45.57965087890625 23.34002685546875 27.57965087890625 -27Q17.25970458984375 -27 2.27978515625 -23.010040283203125Q-12.70013427734375 -19.02008056640625 -23.850067138671875 -13.030120849609375Q-35 -7.0401611328125 -35 -2.0401611328125Q-35 0.65997314453125 -26.809906005859375 28.84002685546875Q-18.61981201171875 57.02008056640625 -7.429718017578125 98.19009399414062Q3.7603759765625 139.360107421875 14.590362548828125 182.360107421875Q25.42034912109375 225.360107421875 30.70013427734375 257.70013427734375Q34.72021484375 267.34002685546875 51.6800537109375 275.3299865722656Q68.639892578125 283.3199462890625 82.639892578125 283.3199462890625Q96.639892578125 283.3199462890625 105.44979858398438 275.0Q114.25970458984375 266.6800537109375 114.25970458984375 252.70013427734375Q114.25970458984375 241.6800537109375 109.06961059570312 218.42971801757812Q103.8795166015625 195.17938232421875 96.17938232421875 166.41900634765625Q116.83935546875 195.77911376953125 141.0194091796875 225.31927490234375Q165.199462890625 254.85943603515625 191.54953002929688 278.89959716796875Q217.89959716796875 302.93975830078125 244.419677734375 317.4698791503906Q270.93975830078125 332 296.61981201171875 332Q331.57965087890625 332 344.0696105957031 306.860107421875Q356.5595703125 281.72021484375 356.5595703125 250.72021484375Q356.5595703125 233.639892578125 353.3694763183594 216.03948974609375Q350.17938232421875 198.4390869140625 345.4892883300781 182.19879150390625Q340.7991943359375 165.95849609375 334.7991943359375 149.97857666015625Q354.479248046875 181.37884521484375 377.99932861328125 208.95916748046875Q401.5194091796875 236.53948974609375 428.8795166015625 253.42971801757812Q456.2396240234375 270.3199462890625 486.93975830078125 270.3199462890625Q523.5595703125 270.3199462890625 537.7095031738281 248.35006713867188Q551.8594360351562 226.38018798828125 551.8594360351562 199.06024169921875Q551.8594360351562 173.06024169921875 543.1894226074219 143.71017456054688Q534.5194091796875 114.360107421875 525.6793823242188 87.67001342773438Q516.83935546875 60.97991943359375 516.83935546875 41.9598388671875Q516.83935546875 30.93975830078125 522.3493957519531 21.75970458984375Q527.8594360351562 12.57965087890625 543.5394897460938 12.57965087890625Q570.8795166015625 12.57965087890625 595.7095031738281 37.749664306640625Q620.5394897460938 62.919677734375 641.8694763183594 99.419677734375Q663.199462890625 135.919677734375 678.199462890625 169.25970458984375L693.4993286132812 150.639892578125Q677.4993286132812 109.29986572265625 652.1693420410156 67.139892578125Q626.83935546875 24.97991943359375 593.0093688964844 -3.010040283203125Q559.1793823242188 -31 516.5394897460938 -31Z" transform="translate(417.304 112.000) scale(0.12334537 -0.12334537)"/>
    <path d="M516.5394897460938 -31Q478.89959716796875 -31 460.919677734375 -8.510040283203125Q442.93975830078125 13.97991943359375 442.93975830078125 45.29986572265625Q442.93975830078125 68.97991943359375 450.1097717285156 92.65997314453125Q457.27978515625 116.34002685546875 464.4497985839844 139.35006713867188Q471.61981201171875 162.360107421875 471.61981201171875 180.70013427734375Q471.61981201171875 198.72021484375 464.2697448730469 205.73025512695312Q456.919677734375 212.74029541015625 446.57965087890625 212.74029541015625Q422.89959716796875 212.74029541015625 392.7396240234375 176.38018798828125Q362.57965087890625 140.02008056640625 316.89959716796875 71.65997314453125Q300.89959716796875 47.65997314453125 287.919677734375 21.84002685546875Q274.93975830078125 -3.97991943359375 264.27978515625 -22.65997314453125Q255.61981201171875 -22.65997314453125 241.96987915039062 -20.0Q228.3199462890625 -17.34002685546875 217.82998657226562 -12.1800537109375Q207.34002685546875 -7.02008056640625 207.34002685546875 1.29986572265625Q207.34002685546875 9.61981201171875 217.17001342773438 35.789825439453125Q227 61.9598388671875 239.82998657226562 96.79986572265625Q252.65997314453125 131.639892578125 262.4899597167969 166.15997314453125Q272.3199462890625 200.6800537109375 272.3199462890625 224.70013427734375Q272.3199462890625 239.72021484375 267.1499328613281 248.57028198242188Q261.97991943359375 257.42034912109375 249.9598388671875 257.42034912109375Q228.61981201171875 257.42034912109375 198.60977172851562 231.91030883789062Q168.5997314453125 206.4002685546875 135.92971801757812 165.05020141601562Q103.25970458984375 123.70013427734375 74.419677734375 73.52008056640625Q45.57965087890625 23.34002685546875 27.57965087890625 -27Q17.25970458984375 -27 2.27978515625 -23.010040283203125Q-12.70013427734375 -19.02008056640625 -23.850067138671875 -13.030120849609375Q-35 -7.0401611328125 -35 -2.0401611328125Q-35 0.65997314453125 -26.809906005859375 28.84002685546875Q-18.61981201171875 57.02008056640625 -7.429718017578125 98.19009399414062Q3.7603759765625 139.360107421875 14.590362548828125 182.360107421875Q25.42034912109375 225.360107421875 30.70013427734375 257.70013427734375Q34.72021484375 267.34002685546875 51.6800537109375 275.3299865722656Q68.639892578125 283.3199462890625 82.639892578125 283.3199462890625Q96.639892578125 283.3199462890625 105.44979858398438 275.0Q114.25970458984375 266.6800537109375 114.25970458984375 252.70013427734375Q114.25970458984375 241.6800537109375 109.06961059570312 218.42971801757812Q103.8795166015625 195.17938232421875 96.17938232421875 166.41900634765625Q116.83935546875 195.77911376953125 141.0194091796875 225.31927490234375Q165.199462890625 254.85943603515625 191.54953002929688 278.89959716796875Q217.89959716796875 302.93975830078125 244.419677734375 317.4698791503906Q270.93975830078125 332 296.61981201171875 332Q331.57965087890625 332 344.0696105957031 306.860107421875Q356.5595703125 281.72021484375 356.5595703125 250.72021484375Q356.5595703125 233.639892578125 353.3694763183594 216.03948974609375Q350.17938232421875 198.4390869140625 345.4892883300781 182.19879150390625Q340.7991943359375 165.95849609375 334.7991943359375 149.97857666015625Q354.479248046875 181.37884521484375 377.99932861328125 208.95916748046875Q401.5194091796875 236.53948974609375 428.8795166015625 253.42971801757812Q456.2396240234375 270.3199462890625 486.93975830078125 270.3199462890625Q523.5595703125 270.3199462890625 537.7095031738281 248.35006713867188Q551.8594360351562 226.38018798828125 551.8594360351562 199.06024169921875Q551.8594360351562 173.06024169921875 543.1894226074219 143.71017456054688Q534.5194091796875 114.360107421875 525.6793823242188 87.67001342773438Q516.83935546875 60.97991943359375 516.83935546875 41.9598388671875Q516.83935546875 30.93975830078125 522.3493957519531 21.75970458984375Q527.8594360351562 12.57965087890625 543.5394897460938 12.57965087890625Q570.8795166015625 12.57965087890625 595.7095031738281 37.749664306640625Q620.5394897460938 62.919677734375 641.8694763183594 99.419677734375Q663.199462890625 135.919677734375 678.199462890625 169.25970458984375L693.4993286132812 150.639892578125Q677.4993286132812 109.29986572265625 652.1693420410156 67.139892578125Q626.83935546875 24.97991943359375 593.0093688964844 -3.010040283203125Q559.1793823242188 -31 516.5394897460938 -31Z" transform="translate(498.096 112.000) scale(0.12334537 -0.12334537)"/>
    <path d="M77.27978515625 -28.639892578125Q34.97991943359375 -28.639892578125 14.0 -3.17743174235026Q-6.97991943359375 22.28502909342448 -6.97991943359375 58.65997314453125Q-6.97991943359375 81.65997314453125 1.190093994140625 116.65997314453125Q9.360107421875 151.65997314453125 23.705513927424064 190.15997314453125Q38.05092043297313 228.65997314453125 57.00735045816297 262.65997314453125Q75.9637804833528 296.65997314453125 97.48189024167641 318.15997314453125Q119 339.65997314453125 140.3199462890625 339.65997314453125Q151.4798583984375 339.65997314453125 159.539794921875 333.00502014160156Q167.5997314453125 326.3500671386719 167.5997314453125 313.0401611328125Q167.5997314453125 300.38018798828125 152.23986272942528 273.9550033077117Q136.8799940135381 247.52981862714213 116.06984930169092 213.2749495967742Q95.25970458984375 179.02008056640625 79.75970458984375 141.88127517700195Q64.25970458984375 104.74246978759766 64.25970458984375 70.97991943359375Q64.25970458984375 37.751806640625 75.92971801757812 26.67576904296875Q87.5997314453125 15.5997314453125 110.61981201171875 15.5997314453125Q144.61981201171875 15.5997314453125 184.10977172851562 49.5997314453125Q223.5997314453125 83.5997314453125 266.5997314453125 168.5997314453125L279.5595703125 154.639892578125Q246.5997314453125 67.3199462890625 192.42971801757812 19.34002685546875Q138.25970458984375 -28.639892578125 77.27978515625 -28.639892578125ZM195.9598388671875 424.74029541015625Q177.97991943359375 424.74029541015625 163.5 433.6202596028646Q149.02008056640625 442.50022379557294 149.02008056640625 461.3701477050781Q149.02008056640625 484.6800537109375 174.51004028320312 501.1700134277344Q200 517.6599731445312 226.84296123798077 517.6599731445312Q243.61981201171875 517.6599731445312 254.92971801757812 510.0Q266.2396240234375 502.34002685546875 266.2396240234375 482.70013427734375Q266.2396240234375 462.3068576388889 244.0744610126202 443.5235765245226Q221.90929800180288 424.74029541015625 195.9598388671875 424.74029541015625Z" transform="translate(578.887 112.000) scale(0.12334537 -0.12334537)"/>
    <path d="M45.919677734375 -280Q21.93975830078125 -280 1.629852294921875 -265.5100402832031Q-18.6800537109375 -251.02008056640625 -18.6800537109375 -218.0401611328125Q-18.6800537109375 -186.72021484375 -0.1800537109375 -161.22021484375Q18.3199462890625 -135.72021484375 48.309906005859375 -114.22021484375Q78.29986572265625 -92.72021484375 113.12985229492188 -74.72021484375Q147.9598388671875 -56.72021484375 180.27978515625 -40.72021484375Q192.29986572265625 -11 203.14993286132812 23.230255126953125Q214 57.46051025390625 224.02008056640625 97.880859375Q188 50.14056396484375 148.47991943359375 18.590362548828125Q108.9598388671875 -12.9598388671875 68.27978515625 -12.9598388671875Q29.639892578125 -12.9598388671875 7.5 14.70013427734375Q-14.639892578125 42.360107421875 -14.639892578125 87.34002685546875Q-14.639892578125 140 11.52008056640625 186.67001342773438Q37.6800537109375 233.34002685546875 79.34002685546875 269.6700134277344Q121 306 168.3199462890625 326.5Q215.639892578125 347 258.27978515625 347Q289.25970458984375 347 304.0696105957031 336.1800537109375Q318.8795166015625 325.360107421875 318.8795166015625 311.0401611328125Q318.8795166015625 300.06024169921875 312.5595703125 293.74029541015625Q306.2396240234375 287.42034912109375 304.2396240234375 286.42034912109375Q295.93975830078125 296.4002685546875 285.6097717285156 299.9002685546875Q275.27978515625 303.4002685546875 260.93975830078125 303.4002685546875Q221.93975830078125 303.4002685546875 185.76974487304688 281.06024169921875Q149.5997314453125 258.72021484375 121.92971801757812 223.71017456054688Q94.25970458984375 188.70013427734375 78.08969116210938 151.19009399414062Q61.919677734375 113.6800537109375 61.919677734375 83Q61.919677734375 61.639892578125 71.08969116210938 50.4598388671875Q80.25970458984375 39.27978515625 94.27978515625 39.27978515625Q122.61981201171875 39.27978515625 162.78982543945312 76.4598388671875Q202.9598388671875 113.639892578125 240.29986572265625 166.65997314453125Q242.639892578125 176.70013427734375 244.47991943359375 184.73025512695312Q246.3199462890625 192.7603759765625 248.34002685546875 202.50067138671875Q255.9598388671875 233.65997314453125 269.1097717285156 252.48995971679688Q282.25970458984375 271.3199462890625 307.25970458984375 271.3199462890625Q312.25970458984375 271.3199462890625 318.9096374511719 270.4899597167969Q325.5595703125 269.65997314453125 333.53948974609375 267.65997314453125Q333.53948974609375 250.34002685546875 323.7095031738281 208.82998657226562Q313.8795166015625 167.3199462890625 296.7095031738281 112.139892578125Q279.53948974609375 56.9598388671875 257.85943603515625 -1.06024169921875Q289.53948974609375 12.9598388671875 321.3694763183594 36.969879150390625Q353.199462890625 60.97991943359375 379.85943603515625 94.139892578125Q406.5194091796875 127.29986572265625 420.85943603515625 167.27978515625L437.1593017578125 152Q421.49932861328125 106.34002685546875 388.1693420410156 68.6800537109375Q354.83935546875 31.02008056640625 316.3493957519531 3.690093994140625Q277.85943603515625 -23.639892578125 245.53948974609375 -38.639892578125Q218.199462890625 -104.97991943359375 186.86947631835938 -159.8199462890625Q155.53948974609375 -214.65997314453125 120.71954345703125 -247.32998657226562Q85.89959716796875 -280 45.919677734375 -280ZM42.25970458984375 -238.7603759765625Q60.93975830078125 -238.7603759765625 93.4598388671875 -202.89022827148438Q125.97991943359375 -167.02008056640625 164 -80.919677734375Q125.97991943359375 -99.5997314453125 93.78982543945312 -119.44979858398438Q61.5997314453125 -139.29986572265625 41.57965087890625 -161.3199462890625Q21.5595703125 -183.34002685546875 21.5595703125 -208.38018798828125Q21.5595703125 -222.4002685546875 27.569610595703125 -230.580322265625Q33.57965087890625 -238.7603759765625 42.25970458984375 -238.7603759765625Z" transform="translate(608.860 112.000) scale(0.12334537 -0.12334537)"/>
    <path d="M180.919677734375 -26Q144.93975830078125 -26 123.12985229492188 -7.010040283203125Q101.3199462890625 11.97991943359375 101.3199462890625 43.61981201171875Q101.3199462890625 72.29986572265625 115.3199462890625 104.639892578125Q129.3199462890625 136.97991943359375 143.47991943359375 168.48995971679688Q157.639892578125 200 157.639892578125 224.6800537109375Q157.639892578125 250.74029541015625 141.44979858398438 266.24029541015625Q125.25970458984375 281.74029541015625 105.5997314453125 292.7603759765625Q83.25970458984375 236.4002685546875 56.609771728515625 184.39022827148438Q29.9598388671875 132.38018798828125 13.29986572265625 104.06024169921875L0.34002685546875 128.97991943359375Q14.34002685546875 154.97991943359375 37.170013427734375 203.65997314453125Q60 252.34002685546875 81.34002685546875 313.0401611328125Q71.34002685546875 323.0401611328125 71.34002685546875 339.02008056640625Q71.34002685546875 366.38018798828125 87.6800537109375 388.02008056640625Q104.02008056640625 409.65997314453125 116.639892578125 409.65997314453125Q128.29986572265625 409.65997314453125 132.43975830078125 397.52008056640625Q136.57965087890625 385.38018798828125 136.57965087890625 380.38018798828125Q136.57965087890625 375.38018798828125 131.7396240234375 361.8701477050781Q126.89959716796875 348.360107421875 125.57965087890625 343.38018798828125Q126.2396240234375 331.360107421875 142.39959716796875 320.52008056640625Q158.5595703125 309.6800537109375 179.21954345703125 295.5100402832031Q199.8795166015625 281.34002685546875 215.70950317382812 260.5100402832031Q231.53948974609375 239.6800537109375 231.53948974609375 207.6800537109375Q231.53948974609375 178.34002685546875 218.70950317382812 148.0Q205.8795166015625 117.65997314453125 193.04953002929688 90.97991943359375Q180.21954345703125 64.29986572265625 180.21954345703125 44.61981201171875Q180.21954345703125 29.25970458984375 188.22958374023438 24.249664306640625Q196.2396240234375 19.2396240234375 206.919677734375 19.2396240234375Q230.919677734375 19.2396240234375 256.7496643066406 33.909637451171875Q282.57965087890625 48.57965087890625 307.2396240234375 71.57965087890625Q331.89959716796875 94.57965087890625 350.89959716796875 120.07965087890625Q369.89959716796875 145.57965087890625 379.5595703125 166.919677734375L399.81927490234375 151.639892578125Q380.81927490234375 108.97991943359375 345.83935546875 67.8199462890625Q310.85943603515625 26.65997314453125 268.0495300292969 0.329986572265625Q225.2396240234375 -26 180.919677734375 -26Z" transform="translate(657.951 112.000) scale(0.12334537 -0.12334537)"/>
    <path d="M53.27978515625 -47Q20.9598388671875 -47 -2.52008056640625 -25.510040283203125Q-26 -4.02008056640625 -26 39.29986572265625Q-26 74.639892578125 -10.0 115.80990600585938Q6 156.97991943359375 34.0 197.14993286132812Q62 237.3199462890625 97.82998657226562 270.15997314453125Q133.65997314453125 303 174.14993286132812 323.0Q214.639892578125 343 254.9598388671875 343Q296.5997314453125 343 325.2396240234375 321.5100402832031Q353.8795166015625 300.02008056640625 353.8795166015625 264.70013427734375Q353.8795166015625 238.38018798828125 336.7496643066406 227.4002685546875Q319.61981201171875 216.42034912109375 294.97991943359375 219.72021484375Q296.97991943359375 228.38018798828125 298.47991943359375 237.55020141601562Q299.97991943359375 246.72021484375 299.97991943359375 256.0401611328125Q299.97991943359375 277.06024169921875 290.9598388671875 293.2302551269531Q281.93975830078125 309.4002685546875 255.5997314453125 309.4002685546875Q227.5997314453125 309.4002685546875 198.5997314453125 290.2302551269531Q169.5997314453125 271.06024169921875 142.92971801757812 239.88018798828125Q116.25970458984375 208.70013427734375 95.25970458984375 171.69009399414062Q74.25970458984375 134.6800537109375 62.25970458984375 99.0Q50.25970458984375 63.3199462890625 50.25970458984375 34.97991943359375Q50.25970458984375 0.5997314453125 74.61981201171875 0.5997314453125Q97.61981201171875 0.5997314453125 125.27978515625 22.75970458984375Q152.93975830078125 44.919677734375 181.43975830078125 78.74966430664062Q209.93975830078125 112.57965087890625 235.93975830078125 148.24966430664062Q261.93975830078125 183.919677734375 281.27978515625 210.61981201171875Q284.61981201171875 215.9598388671875 288.25970458984375 215.9598388671875Q292.93975830078125 214.9598388671875 303.75970458984375 211.62985229492188Q314.57965087890625 208.29986572265625 323.5595703125 201.97991943359375Q332.53948974609375 195.65997314453125 332.53948974609375 185.6800537109375Q332.53948974609375 176.02008056640625 323.8694763183594 160.52008056640625Q315.199462890625 145.02008056640625 303.8694763183594 126.01004028320312Q292.53948974609375 107 283.8694763183594 87.8199462890625Q275.199462890625 68.639892578125 275.199462890625 51.29986572265625Q275.199462890625 37.61981201171875 282.53948974609375 25.0997314453125Q289.8795166015625 12.57965087890625 306.5595703125 12.57965087890625Q331.57965087890625 12.57965087890625 375.2496643066406 49.43975830078125Q418.919677734375 86.29986572265625 463.919677734375 169.25970458984375L479.85943603515625 153.3199462890625Q456.8795166015625 99.3199462890625 423.5495300292969 57.989959716796875Q390.21954345703125 16.65997314453125 353.0495300292969 -6.670013427734375Q315.8795166015625 -30 278.5595703125 -30Q238.919677734375 -30 219.76974487304688 -5.360107421875Q200.61981201171875 19.27978515625 199.29986572265625 47.919677734375Q199.29986572265625 51.27978515625 199.639892578125 54.489959716796875Q199.97991943359375 57.70013427734375 200.3199462890625 61.080322265625Q159.29986572265625 9.6800537109375 125.11981201171875 -18.65997314453125Q90.93975830078125 -47 53.27978515625 -47Z" transform="translate(702.109 112.000) scale(0.12334537 -0.12334537)"/>
    <path d="M332.2396240234375 -20Q294.5997314453125 -20 275.11981201171875 -1.010040283203125Q255.639892578125 17.97991943359375 255.639892578125 47.29986572265625Q255.639892578125 67.639892578125 262.8099060058594 90.30990600585938Q269.97991943359375 112.97991943359375 276.97991943359375 136.48995971679688Q283.97991943359375 160 283.97991943359375 181.6800537109375Q283.97991943359375 205.72021484375 273.139892578125 214.9002685546875Q262.29986572265625 224.080322265625 247.27978515625 224.080322265625Q216.93975830078125 224.080322265625 185.26974487304688 199.24029541015625Q153.5997314453125 174.4002685546875 123.92971801757812 136.55020141601562Q94.25970458984375 98.70013427734375 68.25970458984375 58.02008056640625Q42.25970458984375 17.34002685546875 22.919677734375 -15Q4.93975830078125 -15 -11.210174560546875 -8.84002685546875Q-27.360107421875 -2.6800537109375 -38 11.61981201171875Q-37.34002685546875 16.61981201171875 -26.84002685546875 42.289825439453125Q-16.34002685546875 67.9598388671875 -3.0 104.30990600585938Q10.34002685546875 140.65997314453125 20.6800537109375 180.0Q31.02008056640625 219.34002685546875 31.02008056640625 251.6800537109375Q37.6800537109375 259.34002685546875 51.670013427734375 267.0Q65.65997314453125 274.65997314453125 80.97991943359375 274.65997314453125Q113.25970458984375 274.65997314453125 113.25970458984375 246.02008056640625Q113.25970458984375 232.65997314453125 107.22958374023438 204.39959716796875Q101.199462890625 176.13922119140625 91.1593017578125 142.39892578125Q117.49932861328125 179.4390869140625 149.34939575195312 213.66934204101562Q181.199462890625 247.89959716796875 216.22958374023438 269.9497985839844Q251.25970458984375 292 286.61981201171875 292Q328.25970458984375 292 347.7396240234375 263.34002685546875Q367.21954345703125 234.6800537109375 367.21954345703125 200.02008056640625Q367.21954345703125 169.6800537109375 357.21954345703125 143.51004028320312Q347.21954345703125 117.34002685546875 337.3795166015625 93.82998657226562Q327.53948974609375 70.3199462890625 327.53948974609375 47.29986572265625Q327.53948974609375 29.5997314453125 335.3795166015625 22.419677734375Q343.21954345703125 15.2396240234375 353.57965087890625 15.2396240234375Q377.919677734375 15.2396240234375 403.57965087890625 38.409637451171875Q429.2396240234375 61.57965087890625 452.7396240234375 97.24966430664062Q476.2396240234375 132.919677734375 494.2396240234375 169.25970458984375L509.199462890625 155.5997314453125Q488.199462890625 106.5997314453125 461.8694763183594 66.94979858398438Q435.53948974609375 27.29986572265625 403.5495300292969 3.649932861328125Q371.5595703125 -20 332.2396240234375 -20Z" transform="translate(756.504 112.000) scale(0.12334537 -0.12334537)"/>
    <path d="M88.9598388671875 -46Q45.29986572265625 -46 19.65997314453125 -20.34002685546875Q-5.97991943359375 5.3199462890625 -5.97991943359375 56.9598388671875Q-5.97991943359375 98.97991943359375 9.860107421875 161.17001342773438Q25.70013427734375 223.360107421875 50.0401611328125 289.38018798828125Q42.02008056640625 291.38018798828125 32.690093994140625 292.88018798828125Q23.360107421875 294.38018798828125 14.70013427734375 298.0401611328125V324.61981201171875Q27.97991943359375 322.9598388671875 38.649932861328125 321.9598388671875Q49.3199462890625 320.9598388671875 61.34002685546875 319.9598388671875Q82.34002685546875 373.29986572265625 106.67001342773438 423.139892578125Q131 472.97991943359375 155.15997314453125 512.1499328613281Q179.3199462890625 551.3199462890625 201.14993286132812 574.1599731445312Q222.97991943359375 597 239.29986572265625 597Q248.61981201171875 597 256.7697448730469 590.1800537109375Q264.919677734375 583.360107421875 264.919677734375 570.3801879882812Q264.919677734375 551.4002685546875 244.24966430664062 513.8902282714844Q223.57965087890625 476.38018798828125 193.2396240234375 425.6900939941406Q162.89959716796875 375 134.5595703125 316.9598388671875Q142.89959716796875 316.9598388671875 151.40963745117188 316.9598388671875Q159.919677734375 316.9598388671875 167.5997314453125 316.9598388671875Q207.85943603515625 316.9598388671875 243.699462890625 318.2898254394531Q279.53948974609375 319.61981201171875 316.53948974609375 323.61981201171875V295.72021484375Q261.53948974609375 290.38018798828125 216.38955688476562 287.38018798828125Q171.2396240234375 284.38018798828125 131.9598388671875 283.72021484375Q128.61981201171875 283.72021484375 125.44979858398438 283.72021484375Q122.27978515625 283.72021484375 118.93975830078125 283.72021484375Q97.25970458984375 233.360107421875 81.58969116210938 180.32998657226562Q65.919677734375 127.29986572265625 65.919677734375 76.93975830078125Q65.919677734375 35.25970458984375 78.919677734375 17.749664306640625Q91.919677734375 0.2396240234375 120.5997314453125 0.2396240234375Q171.27978515625 0.2396240234375 222.92971801757812 45.909637451171875Q274.57965087890625 91.57965087890625 313.2396240234375 169.919677734375L326.89959716796875 159.919677734375Q301.57965087890625 101.93975830078125 263.75970458984375 54.9598388671875Q225.93975830078125 7.97991943359375 181.27978515625 -19.010040283203125Q136.61981201171875 -46 88.9598388671875 -46Z" transform="translate(814.600 112.000) scale(0.12334537 -0.12334537)"/>
  </g>
  <text x="126" y="502" fill="#a9afc3" font-family="Arial, sans-serif" font-size="28" letter-spacing="0.5">Source-cited immigration pathways</text>
  <line x1="126" y1="544" x2="1074" y2="544" stroke="#ffffff" stroke-opacity="0.12"/>
  <text x="126" y="580" fill="#8fb8ff" font-family="Arial, sans-serif" font-size="20" letter-spacing="2.5">COUNTRIES · PROGRAMS · OFFICIAL SOURCES</text>
</svg>
